<?xml version="1.0" standalone="no"?>
<!DOCTYPE svg PUBLIC "-//W3C//DTD SVG 20010904//EN"
 "http://www.w3.org/TR/2001/REC-SVG-20010904/DTD/svg10.dtd">
<svg version="1.0" xmlns="http://www.w3.org/2000/svg"
 width="700.000000pt" height="700.000000pt" viewBox="0 0 700.000000 700.000000"
 preserveAspectRatio="xMidYMid meet">
<g transform="translate(0.000000,700.000000) scale(0.100000,-0.100000)"
fill="#000000" stroke="none">
<path d="M737 6990 c-337 -57 -599 -290 -704 -627 l-28 -88 0 -2775 0 -2775
28 -88 c95 -304 300 -509 604 -604 l88 -28 2775 0 2775 0 88 28 c304 95 509
300 604 604 l28 88 0 2775 0 2775 -28 88 c-95 304 -300 509 -604 604 l-88 28
-2745 1 c-1510 1 -2767 -2 -2793 -6z m3113 -1950 l0 -1410 -365 0 -365 0 0
1410 0 1410 365 0 365 0 0 -1410z m-1865 326 c97 -126 179 -234 181 -241 3 -6
-27 -35 -66 -64 -464 -345 -757 -957 -796 -1661 -32 -591 199 -1207 605 -1610
348 -345 770 -550 1264 -615 156 -20 488 -20 644 0 401 53 743 191 1058 428
107 81 306 281 387 390 190 256 331 571 392 877 69 342 57 656 -39 1036 -125
497 -378 904 -716 1155 -38 29 -68 58 -65 64 9 24 358 470 370 473 21 5 217
-162 341 -289 294 -302 502 -672 634 -1122 209 -714 159 -1479 -135 -2097
-182 -379 -434 -693 -764 -951 -391 -305 -915 -511 -1450 -570 -163 -18 -534
-15 -699 5 -890 109 -1624 571 -2060 1299 -392 653 -484 1512 -250 2314 104
355 272 689 476 945 134 170 460 472 500 465 6 -1 91 -105 188 -231z"/>
</g>
</svg>
