<?xml version="1.0" encoding="UTF-8" standalone="no"?>
<!-- Created with Inkscape (http://www.inkscape.org/) -->

<svg
   width="64.0px"
   height="64.0px"
   viewBox="0 0 64.0 64.0"
   version="1.1"
   id="SVGRoot"
   xmlns="http://www.w3.org/2000/svg"
   xmlns:svg="http://www.w3.org/2000/svg">
  <defs
     id="defs1408" />
  <g
     id="layer1">
    <rect
       style="fill:#1867c0;fill-opacity:1"
       id="rect3255"
       width="64"
       height="64"
       x="0"
       y="0"
       ry="8" />
    <g
       aria-label="â»"
       id="text2373"
       style="font-size:64px;line-height:1.25;letter-spacing:0px;word-spacing:0px;fill:#ffffff">
      <path
         d="M 28.544,30.847999 V 5.0559989 H 35.2 V 30.847999 Z m 3.456,28.096 c -3.712,0 -7.125333,-0.64 -10.24,-1.92 -3.114667,-1.237333 -5.824,-2.986667 -8.128,-5.248 -2.304,-2.261333 -4.096,-4.906667 -5.376,-7.936 -1.28,-3.072 -1.92,-6.421333 -1.92,-10.048 0,-4.096 0.8533333,-8.042667 2.56,-11.84 1.706667,-3.797333 4.224,-6.869333 7.552,-9.216 l 1.604675,2.080135 1.851325,2.399865 c -1.834667,1.237333 -3.349333,2.773333 -4.544,4.608 -1.152,1.834667 -2.026667,3.797333 -2.624,5.888 -0.554667,2.090667 -0.832,4.117333 -0.832,6.08 0,2.730667 0.490667,5.290667 1.472,7.68 0.981333,2.389333 2.368,4.48 4.16,6.272 1.834667,1.792 3.968,3.2 6.4,4.224 2.432,0.981333 5.098667,1.472 8,1.472 2.944,0 5.632,-0.490667 8.064,-1.472 2.474667,-1.024 4.608,-2.432 6.4,-4.224 1.792,-1.792 3.178667,-3.882667 4.16,-6.272 1.024,-2.389333 1.536,-4.949333 1.536,-7.68 0,-1.962667 -0.298667,-3.989333 -0.896,-6.08 -0.554667,-2.090667 -1.429333,-4.053333 -2.624,-5.888 -1.152,-1.834667 -2.645333,-3.370667 -4.48,-4.608 l 3.456,-4.48 c 3.328,2.346667 5.845333,5.418667 7.552,9.216 1.706667,3.797333 2.56,7.744 2.56,11.84 0,3.626667 -0.64,6.976 -1.92,10.048 -1.28,3.029333 -3.072,5.674667 -5.376,7.936 -2.304,2.261333 -5.034667,4.010667 -8.192,5.248 -3.114667,1.28 -6.506667,1.92 -10.176,1.92 z"
         style="font-weight:bold;font-family:'Comic Sans MS';-inkscape-font-specification:'Comic Sans MS Bold';fill:#ffffff"
         id="path3410" />
    </g>
  </g>
</svg>
